 <svg  version="1.0" xmlns="http://www.w3.org/2000/svg"  width="675.000000pt" height="675.000000pt" viewBox="0 0 675.000000 675.000000"  preserveAspectRatio="xMidYMid meet">  <g transform="translate(0.000000,675.000000) scale(0.100000,-0.100000)" fill="#00a1e4" stroke="none"> <path d="M3018 5283 c-10 -2 -18 -11 -18 -18 0 -10 -8 -13 -28 -9 -39 8 -113 -68 -126 -128 -5 -24 -11 -176 -15 -339 -5 -263 -8 -297 -23 -313 -10 -10 -21 -28 -24 -42 -5 -19 -11 -23 -26 -18 -11 3 -26 -1 -36 -9 -9 -9 -37 -17 -60 -19 l-44 -3 -2 -92 -2 -93 58 0 c36 0 58 -4 58 -11 0 -7 9 -9 24 -5 27 7 40 -2 26 -19 -8 -9 -6 -14 5 -19 8 -3 15 -12 15 -20 0 -8 6 -16 13 -18 9 -4 14 -79 19 -309 7 -333 11 -374 39 -390 11 -5 19 -14 19 -20 0 -19 55 -58 82 -59 14 0 28 -6 30 -12 4 -10 103 -14 439 -16 239 -2 449 0 467 3 19 4 32 12 32 21 0 10 7 13 24 8 28 -7 66 3 66 16 0 5 14 23 30 40 17 17 30 41 30 55 0 13 6 25 13 27 16 6 23 583 7 603 -8 9 -38 13 -96 14 l-85 0 1 -271 c1 -164 5 -279 11 -291 6 -10 7 -22 3 -25 -4 -4 -9 -1 -11 6 -6 17 -33 15 -33 -3 0 -8 5 -15 11 -15 5 0 7 -5 4 -10 -4 -6 -12 -7 -18 -3 -6 4 -198 8 -425 10 l-414 3 -24 23 -24 24 -4 299 c-3 205 -7 299 -15 302 -6 2 -11 16 -11 30 0 37 -39 73 -71 66 -19 -5 -21 -4 -9 5 13 10 13 12 0 21 -8 5 -21 10 -27 10 -7 0 -13 11 -13 23 0 17 10 29 38 43 39 20 81 61 82 80 0 6 7 17 15 24 13 11 15 58 15 314 0 290 1 302 20 314 11 7 20 18 20 25 0 9 91 11 421 9 485 -4 456 3 461 -99 l3 -58 45 5 c57 5 101 5 120 -1 21 -6 26 109 6 153 -8 18 -17 45 -20 61 -4 15 -11 27 -16 27 -6 0 -10 6 -10 13 0 21 -46 57 -73 57 -13 0 -38 7 -53 15 -25 13 -96 15 -464 14 -239 -1 -443 -3 -452 -6z m324 -41 c14 -14 13 -14 -62 -17 -30 -1 -64 3 -75 8 -11 6 -43 9 -71 8 -29 -1 -54 2 -57 6 -9 14 251 9 265 -5z m578 8 c-20 -13 -53 -13 -45 0 3 6 18 10 33 10 21 0 24 -2 12 -10z m78 -94 c-10 -7 -18 -19 -18 -25 0 -16 -32 -10 -38 7 -2 7 5 12 17 12 12 0 21 5 21 10 0 6 8 10 18 10 16 -1 16 -1 0 -14z m-1045 -38 c-13 -12 -26 -18 -30 -14 -4 4 1 14 11 22 31 22 43 17 19 -8z m1118 -73 c0 -5 -9 -11 -21 -13 -20 -3 -27 8 -13 22 10 9 34 3 34 -9z m-1163 -54 c3 -8 -1 -12 -9 -9 -7 2 -15 10 -17 17 -3 8 1 12 9 9 7 -2 15 -10 17 -17z m2 -489 c0 -10 -7 -27 -15 -38 -13 -18 -14 -17 -15 19 0 26 4 37 15 37 8 0 15 -8 15 -18z m-23 -136 c-11 -20 -12 -19 -15 12 -2 19 0 41 4 50 5 13 8 11 15 -12 5 -19 4 -36 -4 -50z m1181 -388 c-4 -28 -39 -36 -57 -14 -18 21 -5 36 30 36 26 0 30 -3 27 -22z m-1158 -110 c0 -6 -7 -5 -15 2 -8 7 -15 17 -15 22 0 6 7 5 15 -2 8 -7 15 -17 15 -22z m5 -58 c7 -11 -12 -50 -25 -50 -7 0 -8 43 -1 58 3 6 20 1 26 -8z m-15 -175 c0 -8 -4 -16 -9 -19 -5 -3 -8 5 -7 18 1 25 16 26 16 1z m1150 -64 c0 -19 -23 -71 -31 -71 -12 0 -11 37 1 61 11 19 30 26 30 10z m-1134 -32 c10 -17 -13 -36 -27 -22 -12 12 -4 33 11 33 5 0 12 -5 16 -11z m1062 -112 c2 -12 -3 -17 -17 -17 -15 0 -21 6 -21 21 0 25 33 22 38 -4z"/> <path d="M3630 4295 l0 -96 93 3 92 3 3 93 3 92 -96 0 -95 0 0 -95z"/> <path d="M3933 4295 l-1 -95 94 0 94 0 0 95 0 95 -93 0 -92 0 -2 -95z"/> <path d="M408 3063 c-10 -3 -18 -9 -18 -14 0 -5 -13 -9 -30 -9 -16 0 -30 -4 -30 -9 0 -5 -18 -22 -40 -38 -22 -15 -40 -33 -40 -38 0 -6 -9 -16 -20 -23 -11 -7 -20 -19 -20 -28 0 -8 -7 -23 -16 -31 -9 -9 -13 -25 -10 -38 3 -12 -1 -30 -9 -41 -20 -27 -20 -104 0 -104 13 0 15 -7 9 -35 -4 -25 -1 -43 10 -60 9 -13 16 -30 16 -37 0 -16 41 -61 90 -101 23 -19 42 -26 56 -23 16 4 23 0 27 -14 5 -19 13 -20 121 -19 83 1 120 5 130 14 7 8 25 17 40 21 28 7 34 19 14 28 -7 3 -3 3 9 0 16 -3 31 5 57 31 20 20 36 40 36 46 0 6 7 17 15 25 8 9 15 28 15 43 0 15 5 32 12 39 6 6 12 36 13 66 l2 55 -139 0 c-132 0 -140 -1 -135 -19 3 -12 -2 -20 -14 -23 -11 -3 -19 -13 -19 -22 0 -13 6 -15 28 -11 29 5 124 10 158 8 29 -3 41 -58 18 -83 -11 -12 -14 -27 -10 -44 6 -25 -7 -35 -19 -15 -4 7 -21 -4 -40 -25 -19 -19 -43 -35 -54 -35 -11 0 -24 -7 -29 -16 -11 -20 -148 -26 -160 -7 -4 6 -20 15 -35 18 -15 4 -27 10 -27 14 0 3 -13 12 -30 19 -18 8 -37 28 -47 50 -9 20 -23 45 -31 55 -11 12 -16 42 -16 100 -1 84 0 86 47 138 9 10 17 23 17 28 0 18 75 68 112 75 20 4 38 10 40 15 2 5 26 12 55 16 46 6 51 5 50 -12 -2 -12 6 -19 23 -21 14 -2 32 -10 41 -18 9 -8 24 -12 33 -8 10 4 16 1 16 -9 0 -8 7 -21 16 -28 9 -7 20 -24 25 -38 l10 -24 20 21 c11 12 24 22 29 22 16 0 11 47 -5 54 -8 3 -15 12 -15 21 0 8 -7 15 -15 15 -8 0 -15 5 -15 10 0 6 -9 10 -20 10 -10 0 -24 9 -31 21 -7 15 -17 19 -32 15 -13 -3 -25 1 -33 12 -10 14 -30 17 -101 18 -48 1 -96 -1 -105 -3z"/> <path d="M3291 3059 c-18 -7 -22 -14 -17 -32 5 -21 7 -486 3 -582 l-2 -40 47 -3 48 -3 -1 335 -1 336 -27 -1 c-14 0 -37 -5 -50 -10z"/> <path d="M4114 2978 c-3 -4 -4 -94 -3 -200 1 -171 4 -198 22 -240 11 -27 24 -48 29 -48 4 0 8 -7 8 -15 0 -8 5 -15 11 -15 6 0 17 -7 25 -15 9 -8 24 -15 34 -15 10 0 31 -7 46 -15 16 -8 53 -15 82 -15 l52 0 0 51 0 50 -78 -2 c-73 -3 -79 -2 -106 26 -33 33 -40 80 -30 201 l6 70 58 -4 c31 -2 60 0 62 4 3 5 3 26 1 46 l-5 37 -62 3 -61 3 -2 40 c-1 22 -2 45 -2 50 -1 11 -80 14 -87 3z"/> <path d="M4640 2935 c-7 -8 -23 -15 -35 -15 -12 0 -28 -7 -35 -15 -7 -8 -19 -15 -26 -15 -8 0 -14 -7 -14 -15 0 -8 -7 -15 -16 -15 -11 0 -15 -6 -12 -18 3 -12 -2 -24 -13 -31 -11 -6 -19 -22 -19 -35 0 -14 -4 -28 -10 -31 -5 -3 -10 -30 -10 -60 0 -30 5 -57 10 -60 6 -3 10 -21 10 -39 0 -19 7 -39 15 -46 8 -7 15 -19 15 -27 0 -7 7 -16 15 -19 8 -4 15 -11 15 -18 0 -11 16 -20 109 -56 54 -21 133 -20 147 1 3 5 14 9 25 9 20 0 59 33 59 50 0 6 -9 10 -20 10 -11 0 -20 7 -20 15 0 18 -12 19 -29 3 -8 -9 -42 -13 -97 -13 -70 0 -88 4 -99 18 -6 9 -17 17 -24 17 -6 0 -11 7 -11 15 0 8 -5 15 -11 15 -5 0 -15 14 -20 30 -6 17 -15 30 -20 30 -12 0 -11 87 1 95 6 3 10 15 10 26 0 10 9 27 20 36 11 10 20 23 20 30 0 7 7 13 15 13 8 0 15 6 15 14 0 8 14 17 30 21 17 4 30 11 30 16 0 12 67 12 74 0 3 -5 17 -12 31 -15 35 -9 88 -64 103 -108 15 -42 8 -63 -17 -53 -9 4 -61 9 -116 11 l-101 4 -15 -34 -16 -34 180 1 179 0 -4 61 c-3 33 -10 62 -16 64 -7 2 -12 15 -12 28 0 14 -7 27 -15 30 -8 4 -15 10 -15 14 0 15 -72 80 -89 80 -9 0 -22 5 -28 11 -5 5 -37 12 -70 15 -46 3 -63 0 -73 -11z"/> <path d="M3730 2930 c-8 -5 -27 -10 -41 -10 -15 0 -32 -6 -38 -14 -7 -8 -23 -17 -37 -20 -19 -5 -23 -11 -20 -31 3 -14 1 -27 -4 -30 -14 -9 -42 41 -38 67 3 20 -1 23 -31 23 l-34 0 -1 -258 -1 -258 34 3 34 3 -2 158 c-2 105 1 157 8 157 6 0 11 16 11 35 0 28 4 35 20 35 11 0 20 7 20 15 0 8 7 15 15 15 7 0 18 8 24 17 7 14 25 17 97 18 61 0 89 -4 91 -12 5 -15 33 -17 33 -3 0 6 5 10 11 10 7 0 8 -11 4 -30 -4 -19 -3 -30 4 -30 6 0 11 -5 11 -12 0 -6 7 -19 16 -29 13 -15 16 -47 18 -183 l1 -166 30 0 c43 0 59 13 47 36 -6 11 -12 96 -13 189 -2 137 -6 173 -18 187 -9 10 -25 29 -36 43 -11 13 -25 25 -32 25 -7 0 -17 9 -23 20 -7 14 -21 20 -45 20 -18 0 -37 5 -40 10 -8 13 -55 13 -75 0z"/> <path d="M5260 2930 c-8 -5 -27 -10 -41 -10 -15 0 -32 -7 -39 -15 -7 -8 -19 -15 -27 -15 -7 0 -16 -7 -19 -15 -4 -8 -12 -15 -20 -15 -8 0 -14 -9 -14 -20 0 -11 -4 -20 -9 -20 -5 0 -13 -10 -17 -22 -4 -13 -11 -26 -17 -30 -13 -8 -10 -192 4 -196 5 -2 9 -12 9 -23 0 -25 95 -119 119 -119 11 0 21 -6 24 -14 4 -11 25 -13 93 -11 53 2 90 8 92 14 2 6 10 11 18 11 16 0 19 16 4 25 -5 3 -10 15 -10 26 0 26 -46 26 -62 -1 -17 -26 -76 -28 -74 -2 1 12 -8 18 -29 20 -16 2 -34 10 -38 18 -4 8 -14 14 -21 14 -8 0 -16 9 -19 20 -3 11 -12 20 -21 20 -12 0 -15 6 -11 23 4 15 1 28 -9 36 -20 17 -20 31 -1 67 8 16 15 37 15 47 0 9 5 17 10 17 6 0 10 6 10 13 0 14 33 46 68 64 13 7 53 14 88 15 54 3 67 0 75 -14 6 -10 18 -18 29 -18 10 0 21 -6 23 -12 3 -8 6 -5 6 5 1 10 6 15 12 12 6 -4 7 -19 4 -35 -5 -21 -2 -31 11 -38 15 -8 17 -27 16 -138 -1 -329 -1 -324 -18 -324 -11 0 -15 -6 -12 -18 4 -13 -1 -18 -16 -18 -12 0 -80 -1 -153 -2 l-131 -2 0 -42 1 -43 150 1 c108 0 152 3 155 12 2 7 10 12 17 12 21 0 75 62 75 86 0 11 4 24 10 30 5 5 10 137 12 312 l3 302 -46 0 c-38 0 -48 -4 -52 -20 -7 -26 -39 -26 -55 0 -9 15 -22 19 -52 18 -23 -1 -46 4 -52 10 -14 14 -47 15 -68 2z"/> <path d="M5956 2931 c-4 -6 -20 -11 -36 -11 -16 0 -35 -7 -44 -15 -8 -8 -22 -15 -31 -15 -8 0 -18 -7 -21 -15 -4 -8 -17 -15 -29 -15 -18 0 -24 6 -27 27 -3 25 -7 27 -49 30 l-45 3 0 -258 1 -257 47 -3 47 -3 -3 166 -2 166 40 34 c23 19 46 39 51 43 6 5 23 12 38 16 15 3 27 11 27 16 0 6 14 10 30 10 27 0 30 3 30 33 0 38 -14 65 -24 48z"/> <path d="M6270 2931 c0 -6 -19 -11 -46 -11 -37 0 -47 -4 -51 -20 -4 -15 -11 -18 -29 -14 -18 5 -24 2 -24 -10 0 -9 -4 -16 -10 -16 -5 0 -10 -8 -10 -18 0 -9 -9 -23 -21 -30 -15 -10 -19 -20 -15 -37 4 -17 1 -24 -15 -28 -18 -5 -20 -13 -18 -64 2 -78 8 -103 26 -103 11 0 13 -7 8 -30 -5 -23 -3 -30 9 -30 9 0 16 -6 16 -13 0 -17 67 -77 87 -77 8 0 21 -6 29 -14 20 -20 173 -15 205 7 20 14 20 17 6 23 -9 3 -17 17 -17 30 0 19 -5 24 -26 24 -17 0 -28 -6 -31 -19 -7 -26 -40 -33 -56 -12 -15 22 -42 32 -62 25 -11 -4 -12 -10 -6 -18 6 -7 6 -17 0 -26 -7 -12 -10 -11 -15 8 -4 12 -10 22 -15 22 -5 0 -7 11 -3 25 5 19 2 25 -10 25 -9 0 -16 7 -16 15 0 8 -9 19 -19 25 -17 9 -19 20 -18 97 2 58 7 88 15 91 6 2 12 9 12 16 0 15 36 46 55 46 8 0 18 7 22 15 6 10 29 15 76 17 57 3 70 0 78 -14 6 -10 17 -18 24 -18 8 0 15 -7 15 -15 0 -8 6 -15 14 -15 7 0 16 -10 19 -21 3 -13 11 -19 19 -17 10 4 12 -29 10 -175 l-3 -180 32 7 c17 3 40 6 50 6 19 0 19 11 18 254 0 140 -2 256 -4 258 -2 2 -24 2 -49 0 -31 -3 -46 -9 -46 -18 0 -18 -36 -18 -47 0 -4 7 -30 16 -58 20 -27 3 -62 9 -77 12 -18 4 -28 2 -28 -5z"/> <path d="M1103 2913 c-13 -2 -23 -8 -23 -13 0 -5 -10 -10 -22 -12 -15 -2 -22 -9 -22 -21 1 -10 -5 -17 -17 -17 -10 0 -19 -7 -19 -15 0 -8 -6 -15 -13 -15 -40 0 -77 -241 -42 -270 8 -7 15 -23 15 -36 0 -13 6 -24 13 -24 6 -1 23 -14 37 -30 13 -17 32 -30 41 -30 9 0 20 -7 23 -15 5 -13 24 -15 116 -13 l110 3 0 32 c0 17 -8 39 -17 48 -15 16 -17 16 -32 -4 -14 -18 -26 -21 -73 -20 -34 1 -63 -3 -73 -11 -11 -9 -15 -10 -15 0 0 6 9 14 20 17 24 6 21 26 -4 31 -27 6 -75 51 -78 76 -2 13 -10 20 -20 20 -15 -2 -17 6 -11 60 3 35 12 64 19 69 8 4 14 13 14 18 0 14 65 79 78 79 5 0 15 7 22 15 15 18 91 20 107 4 6 -6 26 -14 45 -18 27 -5 37 -15 56 -54 13 -26 30 -47 39 -47 14 0 15 -20 12 -157 l-4 -158 33 0 32 0 2 255 1 255 -33 3 c-23 2 -36 -2 -42 -12 -12 -21 -71 -21 -88 -1 -9 11 -32 15 -89 14 -42 -1 -86 -4 -98 -6z"/> <path d="M1573 2659 l-2 -260 40 3 41 3 1 181 2 181 45 41 c29 28 53 42 71 42 15 0 34 3 43 6 8 3 22 -3 33 -15 9 -12 23 -21 30 -21 7 0 13 -9 13 -19 0 -11 7 -27 17 -36 14 -14 16 -40 14 -190 l-2 -173 34 0 34 0 2 171 c1 140 4 173 16 180 8 4 15 15 15 23 0 20 20 39 49 49 12 4 20 12 18 19 -3 7 13 12 48 14 46 3 53 1 51 -15 -1 -12 6 -18 20 -17 15 0 20 -5 17 -17 -3 -11 2 -18 13 -21 16 -3 18 -18 17 -196 l-2 -192 51 0 50 0 -3 197 c-3 146 -7 197 -16 201 -7 2 -13 11 -13 20 -1 23 -35 62 -54 62 -8 0 -20 9 -26 19 -9 17 -20 20 -90 18 -46 -2 -85 -8 -92 -15 -6 -6 -20 -12 -30 -12 -10 0 -18 -7 -18 -15 0 -27 -53 -18 -89 15 -31 29 -37 31 -108 28 -44 -2 -79 -8 -85 -15 -14 -18 -57 -16 -64 2 -4 10 -20 15 -48 15 l-41 0 -2 -261z"/> <path d="M2604 2905 c-4 -8 -15 -15 -25 -15 -25 0 -119 -98 -119 -124 0 -12 -7 -30 -15 -40 -21 -27 -19 -106 2 -136 10 -14 16 -33 15 -42 -2 -9 18 -40 45 -68 38 -40 53 -50 70 -45 16 4 23 1 23 -10 0 -8 3 -16 8 -16 28 -5 190 -7 205 -3 21 7 22 27 2 44 -8 7 -15 21 -15 31 0 24 -8 24 -32 2 -21 -19 -107 -21 -117 -4 -3 5 -19 11 -35 13 -21 2 -34 12 -47 37 -10 19 -22 37 -27 40 -5 3 -11 45 -14 93 -4 77 -2 87 14 91 10 3 18 12 18 21 0 9 7 16 15 16 8 0 15 5 15 10 0 6 11 16 25 22 14 6 24 17 21 24 -4 9 9 11 52 7 31 -3 61 -9 67 -14 5 -5 19 -9 32 -9 13 0 23 -4 23 -8 0 -14 58 -74 67 -69 4 3 7 -75 6 -174 l-3 -179 49 0 49 0 1 260 2 260 -45 0 c-28 0 -48 -5 -53 -14 -12 -21 -73 -32 -73 -13 0 20 -31 27 -123 27 -60 0 -79 -3 -83 -15z"/> <path d="M694 2105 c-3 -6 -3 -152 -2 -325 l3 -315 45 0 45 0 0 325 0 325 -44 0 c-24 0 -45 -5 -47 -10z"/> <path d="M1797 2114 c-2 -2 -37 -5 -77 -6 -65 -1 -75 -4 -94 -26 -12 -14 -31 -36 -42 -48 -21 -22 -22 -30 -20 -296 l1 -273 24 -3 c13 -2 28 1 33 6 6 6 10 63 9 135 -2 131 9 181 38 173 9 -3 36 -6 61 -8 l45 -3 0 35 0 35 -60 3 c-33 2 -65 8 -72 14 -15 12 -18 108 -3 108 5 0 12 11 16 24 10 41 45 56 128 56 41 0 76 3 78 8 2 4 2 21 -1 37 -5 24 -12 30 -33 32 -14 1 -28 0 -31 -3z"/> <path d="M4863 2108 c-6 -7 -10 -24 -9 -38 1 -21 6 -25 38 -28 l37 -3 -2 38 c-2 33 -6 38 -28 41 -14 2 -30 -3 -36 -10z"/> <path d="M5117 2113 c-5 -7 -19 -10 -36 -7 -26 6 -29 3 -33 -28 -7 -45 -4 -316 4 -323 3 -3 22 11 42 31 35 36 36 39 36 116 0 61 -3 80 -15 84 -8 4 -15 10 -15 16 0 5 5 6 10 3 6 -3 13 0 16 8 8 22 0 114 -9 100z"/> <path d="M4455 2042 c-7 -4 -11 -87 -12 -230 -1 -205 0 -224 17 -234 10 -6 16 -17 13 -24 -6 -15 31 -54 51 -54 8 0 16 -6 19 -12 2 -8 26 -14 63 -16 32 -1 74 -3 91 -4 39 -2 40 -1 45 37 l3 30 -69 0 c-47 0 -71 4 -73 13 -3 6 -10 12 -17 12 -20 0 -53 42 -68 88 -14 41 -15 168 -2 181 3 3 35 7 72 8 l66 1 2 48 2 47 -68 -6 c-77 -6 -80 -4 -80 68 0 30 -5 45 -16 49 -20 8 -27 7 -39 -2z m115 -146 c0 -2 -3 -11 -6 -20 -9 -23 -24 -20 -24 4 0 11 7 20 15 20 8 0 15 -2 15 -4z"/> <path d="M1116 1975 c-15 -8 -37 -15 -47 -15 -11 0 -19 -7 -19 -16 0 -25 -53 -14 -65 14 -8 18 -17 22 -44 20 l-33 -3 -1 -255 0 -255 37 1 c21 1 39 4 41 6 2 2 5 80 6 173 l2 169 37 37 c20 20 47 40 58 43 12 4 22 12 22 17 0 12 117 12 125 -1 3 -5 17 -10 31 -10 17 0 24 -6 24 -19 0 -10 7 -21 15 -25 8 -3 15 -12 15 -20 0 -8 7 -22 16 -31 13 -13 17 -46 21 -178 2 -88 5 -162 6 -163 1 -1 18 1 37 3 l35 5 1 136 c1 90 -2 139 -9 144 -7 4 -10 29 -9 58 1 37 -2 52 -13 56 -8 4 -15 10 -15 15 0 12 -38 49 -50 49 -5 0 -10 5 -10 10 0 6 -6 10 -14 10 -7 0 -24 8 -37 19 -30 23 -122 27 -163 6z"/> <path d="M2058 1976 c-8 -7 -25 -17 -38 -21 -25 -8 -37 -17 -73 -52 -41 -39 -57 -67 -57 -95 0 -15 -4 -28 -10 -28 -5 0 -10 -22 -10 -49 0 -28 5 -53 10 -56 6 -3 10 -23 10 -43 0 -23 7 -44 18 -54 9 -9 22 -23 28 -30 38 -44 85 -78 109 -78 14 0 36 -5 48 -12 25 -13 97 -12 111 2 6 6 19 10 31 10 11 0 34 13 50 28 17 15 38 31 48 35 9 3 17 13 17 22 0 8 4 15 8 15 5 0 17 19 27 43 22 49 27 153 10 182 -7 11 -15 32 -19 48 -3 15 -11 27 -16 27 -6 0 -10 5 -10 10 0 6 -9 19 -20 30 -11 11 -24 20 -30 20 -5 0 -10 4 -10 8 0 5 -23 18 -50 30 -59 26 -160 30 -182 8z m182 -96 c6 -11 16 -20 23 -20 14 0 43 -51 53 -93 3 -15 10 -30 15 -33 5 -3 2 -15 -6 -27 -8 -12 -15 -32 -15 -45 0 -12 -5 -28 -10 -35 -6 -7 -19 -24 -31 -39 -11 -16 -27 -28 -35 -28 -8 0 -14 -6 -14 -13 0 -19 -152 -10 -163 9 -4 8 -15 14 -22 14 -8 0 -15 7 -15 15 0 8 -7 15 -15 15 -8 0 -15 7 -15 15 0 7 -7 18 -15 23 -10 5 -17 31 -22 75 -6 73 -9 67 60 137 15 15 27 32 27 37 0 4 43 9 94 11 87 2 96 1 106 -18z"/> <path d="M2744 1975 c-10 -8 -31 -15 -46 -15 -16 0 -28 -5 -28 -11 0 -15 -42 -48 -62 -49 -9 0 -19 -6 -22 -12 -3 -7 -3 2 0 19 10 57 -2 73 -51 73 l-44 0 2 -257 2 -258 45 0 45 0 2 157 2 157 41 41 c22 22 46 40 54 40 7 0 19 6 26 14 6 8 28 16 48 18 36 3 37 4 40 51 3 40 0 47 -16 47 -10 0 -27 -7 -38 -15z"/> <path d="M3077 1970 c-9 -12 -22 -16 -49 -12 -21 2 -38 8 -38 13 0 5 -17 9 -37 9 l-38 0 1 -257 2 -258 26 1 c60 2 56 -8 56 153 0 177 7 241 27 241 7 0 16 7 19 15 4 8 15 15 27 15 11 0 28 7 37 15 15 14 20 14 46 0 16 -8 35 -15 42 -15 6 0 12 -7 12 -15 0 -8 7 -15 15 -15 9 0 15 -9 15 -22 0 -13 3 -33 6 -46 5 -18 9 -20 20 -11 11 9 14 8 14 -5 0 -9 -4 -16 -9 -16 -15 0 -20 -40 -22 -164 -1 -130 2 -137 56 -133 l30 3 3 184 c3 167 5 187 22 205 11 12 20 26 20 32 0 6 29 10 74 9 58 -1 79 -5 95 -20 12 -11 21 -25 21 -32 0 -7 7 -17 15 -21 12 -7 15 -42 18 -183 l4 -175 29 0 29 0 -1 215 c0 192 -2 215 -16 214 -10 -1 -14 4 -11 11 6 17 -31 55 -54 55 -10 0 -27 7 -37 15 -11 8 -38 15 -61 15 -23 0 -50 -7 -61 -15 -10 -8 -25 -15 -31 -15 -7 0 -21 -8 -32 -17 -29 -28 -64 -53 -73 -53 -4 0 -8 8 -8 19 0 10 -16 31 -36 46 -46 35 -146 44 -167 15z"/> <path d="M3966 1975 c-15 -8 -34 -15 -42 -15 -21 0 -103 -81 -122 -119 -13 -28 -16 -58 -14 -131 1 -52 7 -96 12 -98 6 -2 10 -12 10 -21 0 -20 62 -91 80 -91 6 0 19 -7 27 -16 10 -10 27 -14 45 -12 17 3 28 0 28 -8 0 -20 62 -23 115 -4 39 13 49 21 47 36 -7 43 -9 44 -102 44 -52 0 -90 4 -90 10 0 5 -11 12 -25 16 -14 3 -25 12 -25 20 0 7 -6 17 -14 21 -14 9 -41 63 -49 102 -3 13 2 39 14 60 10 19 19 41 19 48 0 7 5 13 10 13 6 0 10 7 10 16 0 14 -2 15 -17 3 -14 -12 -16 -12 -11 1 3 9 17 15 37 15 17 0 36 7 41 15 14 23 179 20 192 -3 5 -9 15 -17 22 -17 7 0 19 -12 26 -27 8 -16 21 -36 29 -46 12 -14 15 -50 16 -168 l0 -149 38 0 c37 0 38 1 33 28 -6 27 -9 389 -4 447 3 28 0 30 -33 33 -30 3 -37 -1 -42 -18 -5 -19 -8 -20 -27 -10 -12 6 -32 9 -44 6 -15 -4 -28 1 -39 14 -21 25 -108 27 -151 5z m294 -49 c0 -8 -7 -16 -15 -20 -10 -4 -15 1 -15 14 0 11 7 20 15 20 8 0 15 -6 15 -14z"/> <path d="M5645 1957 c-63 -34 -95 -60 -95 -78 0 -6 -7 -18 -16 -26 -10 -10 -14 -27 -12 -45 3 -18 0 -28 -8 -28 -7 0 -16 -15 -20 -34 -7 -39 3 -96 17 -96 5 0 9 -13 9 -29 0 -17 5 -33 11 -36 5 -4 14 -18 19 -31 6 -15 15 -22 25 -18 8 3 15 1 15 -5 0 -21 54 -60 83 -61 15 0 27 -4 27 -9 0 -18 68 -22 106 -6 20 8 47 15 60 15 27 0 33 24 9 34 -8 3 -15 14 -15 25 0 21 -16 37 -22 22 -1 -4 -35 -11 -74 -15 -67 -7 -72 -6 -77 14 -4 16 -11 20 -25 16 -15 -5 -25 2 -42 29 -12 19 -25 35 -28 35 -4 0 -6 38 -4 85 2 47 7 85 12 85 5 0 12 10 16 23 3 12 20 34 37 49 28 26 35 27 113 25 78 -3 84 -5 127 -40 l45 -37 3 -164 c2 -92 8 -169 14 -175 6 -5 26 -11 45 -13 l35 -3 0 260 0 260 -35 -3 c-19 -2 -43 -11 -52 -19 -20 -18 -90 -10 -109 13 -8 9 -31 14 -73 13 -49 0 -73 -7 -121 -32z"/> <path d="M4855 1969 c-4 -6 -4 -31 0 -56 4 -25 6 -135 6 -244 l0 -199 25 -6 c14 -4 27 -4 30 -1 4 3 7 121 8 261 l2 256 -32 0 c-18 0 -36 -5 -39 -11z"/> <path d="M5325 1907 c-9 -10 -14 -25 -11 -32 3 -8 -2 -11 -12 -9 -10 3 -38 -15 -70 -46 -30 -27 -58 -50 -63 -50 -5 0 -9 -7 -9 -15 0 -8 -7 -15 -15 -15 -8 0 -15 -4 -15 -9 0 -13 159 -174 193 -196 15 -9 27 -23 27 -30 0 -28 51 -55 101 -55 27 0 49 3 49 6 0 4 -47 53 -105 109 -58 57 -105 108 -105 114 0 6 -7 11 -15 11 -27 0 -16 45 18 78 18 18 38 32 45 32 7 0 12 4 12 10 0 12 68 80 80 80 15 0 12 30 -2 31 -7 0 -29 1 -50 3 -26 2 -41 -3 -53 -17z"/> <path d="M5048 1618 c-3 -40 -4 -89 -3 -108 2 -19 4 -41 4 -47 1 -8 16 -13 39 -13 l38 0 1 76 c1 57 -3 83 -15 103 -23 35 -45 61 -53 61 -3 0 -9 -33 -11 -72z"/> </g> </svg> 